<svg xmlns="http://www.w3.org/2000/svg" viewBox="0 0 924 212" width="924" height="212" role="img" aria-label="dy-wcet schedule: task A preempts task B; B finishes at 300 microseconds, well before its 1,000 microsecond deadline."><rect width="924" height="212" rx="16" fill="#0d1117"/><g transform="translate(22,22)"><text class="tl-lane" fill="#86868b" font-family="-apple-system,BlinkMacSystemFont,Inter,Roboto,Helvetica,Arial,sans-serif" font-size="13" font-weight="600" x="4" y="50">A</text><text class="tl-lane" fill="#86868b" font-family="-apple-system,BlinkMacSystemFont,Inter,Roboto,Helvetica,Arial,sans-serif" font-size="13" font-weight="600" x="4" y="106">B</text><rect class="tl-track" fill="#16161a" x="28" y="30" width="840" height="30" rx="6"/><rect class="tl-track" fill="#16161a" x="28" y="86" width="840" height="30" rx="6"/><rect class="tl-a" fill="#1f8fae" x="28.0" y="30" width="77.7" height="30" rx="5"/><rect class="tl-bw" fill="#f5f5f7" x="105.7" y="86" width="155.4" height="30" rx="5"/><rect class="tl-a" fill="#1f8fae" x="338.8" y="30" width="77.7" height="30" rx="5"/><rect class="tl-a" fill="#1f8fae" x="649.6" y="30" width="77.7" height="30" rx="5"/><rect class="tl-b" fill="#3a3a3d" x="805.1" y="86" width="62.9" height="30" rx="5"/><line class="tl-dl" stroke="#86868b" stroke-width="1.5" stroke-dasharray="4 4" x1="805.1" x2="805.1" y1="18" y2="124"/><line class="tl-fin" stroke="#2dd4ff" stroke-width="2" x1="261.1" x2="261.1" y1="18" y2="124"/><text class="tl-t tl-fin-t" fill="#2dd4ff" font-family="ui-monospace,SF Mono,JetBrains Mono,Roboto Mono,Menlo,monospace" font-size="12" font-weight="500" x="261.1" y="14" text-anchor="middle">done 300</text><text class="tl-t" fill="#a1a1a6" font-family="ui-monospace,SF Mono,JetBrains Mono,Roboto Mono,Menlo,monospace" font-size="12" font-weight="500" x="805.1" y="14" text-anchor="middle">deadline 1,000</text><line class="tl-axis" stroke="#2a2a2e" stroke-width="1" x1="28" x2="868" y1="146" y2="146"/><text class="tl-tick" fill="#86868b" font-family="ui-monospace,SF Mono,JetBrains Mono,Roboto Mono,Menlo,monospace" font-size="11" x="28.0" y="162" text-anchor="middle">0</text><line class="tl-axis" stroke="#2a2a2e" stroke-width="1" x1="28.0" x2="28.0" y1="142" y2="150"/><text class="tl-tick" fill="#86868b" font-family="ui-monospace,SF Mono,JetBrains Mono,Roboto Mono,Menlo,monospace" font-size="11" x="416.5" y="162" text-anchor="middle">500</text><line class="tl-axis" stroke="#2a2a2e" stroke-width="1" x1="416.5" x2="416.5" y1="142" y2="150"/><text class="tl-tick" fill="#86868b" font-family="ui-monospace,SF Mono,JetBrains Mono,Roboto Mono,Menlo,monospace" font-size="11" x="805.1" y="162" text-anchor="middle">1,000</text><line class="tl-axis" stroke="#2a2a2e" stroke-width="1" x1="805.1" x2="805.1" y1="142" y2="150"/></g></svg>
